<?xml version="1.0" standalone="no"?>
<!DOCTYPE svg PUBLIC "-//W3C//DTD SVG 1.1//EN" "http://www.w3.org/Graphics/SVG/1.1/DTD/svg11.dtd">
<!--
    This file was generated by `beautiful-labels`. Don't edit it directly.
-->
<svg width="840" height="580" xmlns="http://www.w3.org/2000/svg" xmlns:xlink="http://www.w3.org/1999/xlink">
  <rect x="0" y="0" width="840" height="580" fill="#eee"/>
  <g font-size="25" font-family="arial" fill="#444">
    <text x="40" y="50">
      Labels for dtr-org/unit-e-desktop
    </text>
  </g>
  <g font-size="25" font-family="arial" fill="#777">
    <text x="40" y="120">
      Status
    </text>
  </g>
  <rect x="200" y="90" width="130" height="40" fill="#666666" rx="5"/>
  <g font-size="14" font-family="arial" fill="white">
    <text x="213" y="116">
      wip
    </text>
  </g>
  <g font-size="25" font-family="arial" fill="#777">
    <text x="40" y="180">
      Type
    </text>
  </g>
  <rect x="200" y="150" width="130" height="40" fill="#d73a4a" rx="5"/>
  <g font-size="14" font-family="arial" fill="white">
    <text x="213" y="176">
      bug
    </text>
  </g>
  <rect x="350" y="150" width="130" height="40" fill="#38d33d" rx="5"/>
  <g font-size="14" font-family="arial" fill="white">
    <text x="363" y="176">
      feature
    </text>
  </g>
  <rect x="500" y="150" width="130" height="40" fill="#54d958" rx="5"/>
  <g font-size="14" font-family="arial" fill="white">
    <text x="513" y="176">
      refactoring
    </text>
  </g>
  <rect x="650" y="150" width="130" height="40" fill="#6fdf73" rx="5"/>
  <g font-size="14" font-family="arial" fill="white">
    <text x="663" y="176">
      performance
    </text>
  </g>
  <rect x="200" y="210" width="130" height="40" fill="#dd5664" rx="5"/>
  <g font-size="14" font-family="arial" fill="white">
    <text x="213" y="236">
      broken test
    </text>
  </g>
  <rect x="350" y="210" width="130" height="40" fill="#e2727e" rx="5"/>
  <g font-size="14" font-family="arial" fill="white">
    <text x="363" y="236">
      floating test
    </text>
  </g>
  <g font-size="25" font-family="arial" fill="#777">
    <text x="40" y="300">
      Category
    </text>
  </g>
  <rect x="200" y="270" width="130" height="40" fill="#dceaff" rx="5"/>
  <g font-size="14" font-family="arial" fill="black">
    <text x="213" y="296">
      build
    </text>
  </g>
  <rect x="350" y="270" width="130" height="40" fill="#cbdfff" rx="5"/>
  <g font-size="14" font-family="arial" fill="black">
    <text x="363" y="296">
      ci
    </text>
  </g>
  <rect x="500" y="270" width="130" height="40" fill="#bad5ff" rx="5"/>
  <g font-size="14" font-family="arial" fill="black">
    <text x="513" y="296">
      style
    </text>
  </g>
  <rect x="650" y="270" width="130" height="40" fill="#a9cbff" rx="5"/>
  <g font-size="14" font-family="arial" fill="black">
    <text x="663" y="296">
      documentation
    </text>
  </g>
  <rect x="200" y="330" width="130" height="40" fill="#98c0ff" rx="5"/>
  <g font-size="14" font-family="arial" fill="black">
    <text x="213" y="356">
      repo
    </text>
  </g>
  <rect x="350" y="330" width="130" height="40" fill="#87b6fe" rx="5"/>
  <g font-size="14" font-family="arial" fill="white">
    <text x="363" y="356">
      security
    </text>
  </g>
  <rect x="500" y="330" width="130" height="40" fill="#77acfe" rx="5"/>
  <g font-size="14" font-family="arial" fill="white">
    <text x="513" y="356">
      technical debt
    </text>
  </g>
  <rect x="650" y="330" width="130" height="40" fill="#66a1fe" rx="5"/>
  <g font-size="14" font-family="arial" fill="white">
    <text x="663" y="356">
      tests
    </text>
  </g>
  <rect x="200" y="390" width="130" height="40" fill="#3382fe" rx="5"/>
  <g font-size="14" font-family="arial" fill="white">
    <text x="213" y="416">
      usability
    </text>
  </g>
  <g font-size="25" font-family="arial" fill="#777">
    <text x="40" y="480">
      Platform
    </text>
  </g>
  <rect x="200" y="450" width="130" height="40" fill="#9a6af2" rx="5"/>
  <g font-size="14" font-family="arial" fill="white">
    <text x="213" y="476">
      linux
    </text>
  </g>
  <rect x="350" y="450" width="130" height="40" fill="#9a6af2" rx="5"/>
  <g font-size="14" font-family="arial" fill="white">
    <text x="363" y="476">
      windows
    </text>
  </g>
  <rect x="500" y="450" width="130" height="40" fill="#9a6af2" rx="5"/>
  <g font-size="14" font-family="arial" fill="white">
    <text x="513" y="476">
      mac
    </text>
  </g>
  <g font-size="25" font-family="arial" fill="#777">
    <text x="40" y="540">
      Welcome
    </text>
  </g>
  <rect x="200" y="510" width="130" height="40" fill="#a0f324" rx="5"/>
  <g font-size="14" font-family="arial" fill="black">
    <text x="213" y="536">
      good first issue
    </text>
  </g>
</svg>
