<?xml version="1.0" standalone="no"?>
<!DOCTYPE svg PUBLIC "-//W3C//DTD SVG 1.1//EN" "http://www.w3.org/Graphics/SVG/1.1/DTD/svg11.dtd">
<!--
    This file was generated by `beautiful-labels`. Don't edit it directly.
-->
<svg width="840" height="340" xmlns="http://www.w3.org/2000/svg" xmlns:xlink="http://www.w3.org/1999/xlink">
  <rect x="0" y="0" width="840" height="340" fill="#eee"/>
  <g font-size="25" font-family="arial" fill="#444">
    <text x="40" y="50">
      Labels for dtr-org/unit-e-project
    </text>
  </g>
  <g font-size="25" font-family="arial" fill="#777">
    <text x="40" y="120">
      Status
    </text>
  </g>
  <rect x="200" y="90" width="130" height="40" fill="#666666" rx="5"/>
  <g font-size="14" font-family="arial" fill="white">
    <text x="213" y="116">
      wip
    </text>
  </g>
  <g font-size="25" font-family="arial" fill="#777">
    <text x="40" y="180">
      Type
    </text>
  </g>
  <rect x="200" y="150" width="130" height="40" fill="#d73a4a" rx="5"/>
  <g font-size="14" font-family="arial" fill="white">
    <text x="213" y="176">
      bug
    </text>
  </g>
  <rect x="350" y="150" width="130" height="40" fill="#38d33d" rx="5"/>
  <g font-size="14" font-family="arial" fill="white">
    <text x="363" y="176">
      feature
    </text>
  </g>
  <g font-size="25" font-family="arial" fill="#777">
    <text x="40" y="240">
      Category
    </text>
  </g>
  <rect x="200" y="210" width="130" height="40" fill="#dceaff" rx="5"/>
  <g font-size="14" font-family="arial" fill="black">
    <text x="213" y="236">
      decision
    </text>
  </g>
  <rect x="350" y="210" width="130" height="40" fill="#a9cbff" rx="5"/>
  <g font-size="14" font-family="arial" fill="black">
    <text x="363" y="236">
      documentation
    </text>
  </g>
  <rect x="500" y="210" width="130" height="40" fill="#98c0ff" rx="5"/>
  <g font-size="14" font-family="arial" fill="black">
    <text x="513" y="236">
      repo
    </text>
  </g>
  <g font-size="25" font-family="arial" fill="#777">
    <text x="40" y="300">
      Areas
    </text>
  </g>
  <rect x="200" y="270" width="130" height="40" fill="#7fe214" rx="5"/>
  <g font-size="14" font-family="arial" fill="white">
    <text x="213" y="296">
      open sourcing
    </text>
  </g>
  <rect x="350" y="270" width="130" height="40" fill="#86edee" rx="5"/>
  <g font-size="14" font-family="arial" fill="black">
    <text x="363" y="296">
      process
    </text>
  </g>
</svg>
